# vtk DataFile Version 2.0

ASCII

DATASET STRUCTURED_GRID
DIMENSIONS 21 11 1
POINTS 231 float
0.000000000000000000e+00 0.000000000000000000e+00 0.000000000000000000e+00
-5.000000000000000278e-02 1.000000000000000194e-02 0.000000000000000000e+00
-1.000000000000000056e-01 2.000000000000000389e-02 0.000000000000000000e+00
-1.500000000000000222e-01 3.000000000000000583e-02 0.000000000000000000e+00
-2.000000000000000111e-01 4.000000000000000777e-02 0.000000000000000000e+00
-2.500000000000000000e-01 5.000000000000000278e-02 0.000000000000000000e+00
-3.000000000000000444e-01 6.000000000000001166e-02 0.000000000000000000e+00
-3.500000000000000333e-01 7.000000000000000666e-02 0.000000000000000000e+00
-4.000000000000000222e-01 8.000000000000001554e-02 0.000000000000000000e+00
-4.500000000000000111e-01 9.000000000000001055e-02 0.000000000000000000e+00
-5.000000000000000000e-01 1.000000000000000056e-01 0.000000000000000000e+00
-5.500000000000000444e-01 1.100000000000000144e-01 0.000000000000000000e+00
-6.000000000000000888e-01 1.200000000000000233e-01 0.000000000000000000e+00
-6.500000000000000222e-01 1.300000000000000044e-01 0.000000000000000000e+00
-7.000000000000000666e-01 1.400000000000000133e-01 0.000000000000000000e+00
-7.500000000000000000e-01 1.500000000000000222e-01 0.000000000000000000e+00
-8.000000000000000444e-01 1.600000000000000311e-01 0.000000000000000000e+00
-8.500000000000000888e-01 1.700000000000000400e-01 0.000000000000000000e+00
-9.000000000000000222e-01 1.800000000000000211e-01 0.000000000000000000e+00
-9.500000000000000666e-01 1.900000000000000300e-01 0.000000000000000000e+00
-1.000000000000000000e+00 2.000000000000000111e-01 0.000000000000000000e+00
1.000000000000000056e-01 2.000000000000000389e-02 0.000000000000000000e+00
4.999999999999998196e-02 3.300000000000000155e-02 0.000000000000000000e+00
0.000000000000000000e+00 4.600000000000002004e-02 0.000000000000000000e+00
-5.000000000000003053e-02 5.900000000000003159e-02 0.000000000000000000e+00
-1.000000000000000056e-01 7.200000000000000844e-02 0.000000000000000000e+00
-1.499999999999999944e-01 8.500000000000001998e-02 0.000000000000000000e+00
-2.000000000000000666e-01 9.800000000000003153e-02 0.000000000000000000e+00
-2.500000000000001110e-01 1.110000000000000153e-01 0.000000000000000000e+00
-3.000000000000000444e-01 1.240000000000000407e-01 0.000000000000000000e+00
-3.500000000000000333e-01 1.369999999999999829e-01 0.000000000000000000e+00
-4.000000000000000222e-01 1.500000000000000222e-01 0.000000000000000000e+00
-4.500000000000000666e-01 1.630000000000000338e-01 0.000000000000000000e+00
-5.000000000000002220e-01 1.760000000000001008e-01 0.000000000000000000e+00
-5.500000000000001554e-01 1.890000000000000568e-01 0.000000000000000000e+00
-6.000000000000001998e-01 2.020000000000000684e-01 0.000000000000000000e+00
-6.500000000000000222e-01 2.150000000000000244e-01 0.000000000000000000e+00
-7.000000000000000666e-01 2.280000000000000360e-01 0.000000000000000000e+00
-7.500000000000001110e-01 2.410000000000000475e-01 0.000000000000000000e+00
-8.000000000000000444e-01 2.540000000000000591e-01 0.000000000000000000e+00
-8.500000000000000888e-01 2.670000000000000706e-01 0.000000000000000000e+00
-9.000000000000000222e-01 2.800000000000000266e-01 0.000000000000000000e+00
2.000000000000000111e-01 4.000000000000000777e-02 0.000000000000000000e+00
1.499999999999999389e-01 5.600000000000000810e-02 0.000000000000000000e+00
1.000000000000000056e-01 7.200000000000000844e-02 0.000000000000000000e+00
4.999999999999998890e-02 8.800000000000002265e-02 0.000000000000000000e+00
0.000000000000000000e+00 1.039999999999999813e-01 0.000000000000000000e+00
-4.999999999999998890e-02 1.200000000000000372e-01 0.000000000000000000e+00
-1.000000000000000611e-01 1.360000000000000098e-01 0.000000000000000000e+00
-1.500000000000000500e-01 1.520000000000000240e-01 0.000000000000000000e+00
-2.000000000000000666e-01 1.680000000000000382e-01 0.000000000000000000e+00
-2.500000000000001110e-01 1.840000000000000524e-01 0.000000000000000000e+00
-3.000000000000000444e-01 2.000000000000000111e-01 0.000000000000000000e+00
-3.500000000000000888e-01 2.160000000000000253e-01 0.000000000000000000e+00
-4.000000000000001332e-01 2.320000000000000395e-01 0.000000000000000000e+00
-4.500000000000000111e-01 2.480000000000000537e-01 0.000000000000000000e+00
-5.000000000000001110e-01 2.640000000000000124e-01 0.000000000000000000e+00
-5.500000000000001554e-01 2.800000000000000266e-01 0.000000000000000000e+00
-6.000000000000001998e-01 2.960000000000000409e-01 0.000000000000000000e+00
-6.500000000000002442e-01 3.120000000000000551e-01 0.000000000000000000e+00
-7.000000000000001776e-01 3.280000000000000693e-01 0.000000000000000000e+00
-7.500000000000002220e-01 3.440000000000000835e-01 0.000000000000000000e+00
-8.000000000000000444e-01 3.600000000000000422e-01 0.000000000000000000e+00
3.000000000000000444e-01 6.000000000000001166e-02 0.000000000000000000e+00
2.500000000000000555e-01 7.900000000000000078e-02 0.000000000000000000e+00
2.000000000000000666e-01 9.800000000000003153e-02 0.000000000000000000e+00
1.500000000000000500e-01 1.169999999999999929e-01 0.000000000000000000e+00
1.000000000000000333e-01 1.360000000000000098e-01 0.000000000000000000e+00
5.000000000000004441e-02 1.550000000000000266e-01 0.000000000000000000e+00
0.000000000000000000e+00 1.740000000000000435e-01 0.000000000000000000e+00
-4.999999999999993339e-02 1.930000000000000049e-01 0.000000000000000000e+00
-9.999999999999992228e-02 2.120000000000000218e-01 0.000000000000000000e+00
-1.499999999999999667e-01 2.310000000000000386e-01 0.000000000000000000e+00
-1.999999999999999556e-01 2.500000000000000000e-01 0.000000000000000000e+00
-2.500000000000000000e-01 2.690000000000000169e-01 0.000000000000000000e+00
-3.000000000000000444e-01 2.880000000000000338e-01 0.000000000000000000e+00
-3.499999999999998668e-01 3.069999999999999951e-01 0.000000000000000000e+00
-3.999999999999999112e-01 3.260000000000000120e-01 0.000000000000000000e+00
-4.499999999999998446e-01 3.450000000000000844e-01 0.000000000000000000e+00
-4.999999999999998890e-01 3.639999999999999902e-01 0.000000000000000000e+00
-5.499999999999999334e-01 3.830000000000001181e-01 0.000000000000000000e+00
-5.999999999999999778e-01 4.020000000000000795e-01 0.000000000000000000e+00
-6.500000000000000222e-01 4.210000000000000964e-01 0.000000000000000000e+00
-6.999999999999999556e-01 4.400000000000000577e-01 0.000000000000000000e+00
4.000000000000000222e-01 8.000000000000001554e-02 0.000000000000000000e+00
3.499999999999999778e-01 1.019999999999999934e-01 0.000000000000000000e+00
3.000000000000000444e-01 1.240000000000000407e-01 0.000000000000000000e+00
2.500000000000001110e-01 1.460000000000000187e-01 0.000000000000000000e+00
2.000000000000000666e-01 1.680000000000000382e-01 0.000000000000000000e+00
1.499999999999999944e-01 1.900000000000000577e-01 0.000000000000000000e+00
9.999999999999992228e-02 2.120000000000000218e-01 0.000000000000000000e+00
4.999999999999993339e-02 2.340000000000000691e-01 0.000000000000000000e+00
0.000000000000000000e+00 2.560000000000000053e-01 0.000000000000000000e+00
-5.000000000000004441e-02 2.780000000000000249e-01 0.000000000000000000e+00
-9.999999999999997780e-02 2.999999999999999334e-01 0.000000000000000000e+00
-1.500000000000000222e-01 3.219999999999999529e-01 0.000000000000000000e+00
-2.000000000000000666e-01 3.439999999999999725e-01 0.000000000000000000e+00
-2.500000000000000000e-01 3.659999999999999920e-01 0.000000000000000000e+00
-3.000000000000000444e-01 3.880000000000001226e-01 0.000000000000000000e+00
-3.499999999999999778e-01 4.100000000000000311e-01 0.000000000000000000e+00
-4.000000000000000222e-01 4.320000000000000506e-01 0.000000000000000000e+00
-4.500000000000000666e-01 4.540000000000000702e-01 0.000000000000000000e+00
-5.000000000000001110e-01 4.760000000000000897e-01 0.000000000000000000e+00
-5.500000000000001554e-01 4.980000000000001092e-01 0.000000000000000000e+00
-5.999999999999999778e-01 5.200000000000000178e-01 0.000000000000000000e+00
5.000000000000000000e-01 1.000000000000000056e-01 0.000000000000000000e+00
4.499999999999999556e-01 1.250000000000000000e-01 0.000000000000000000e+00
4.000000000000000222e-01 1.500000000000000222e-01 0.000000000000000000e+00
3.499999999999999778e-01 1.750000000000000722e-01 0.000000000000000000e+00
3.000000000000000444e-01 2.000000000000000111e-01 0.000000000000000000e+00
2.500000000000000000e-01 2.250000000000000611e-01 0.000000000000000000e+00
1.999999999999999556e-01 2.500000000000001110e-01 0.000000000000000000e+00
1.499999999999998834e-01 2.750000000000000222e-01 0.000000000000000000e+00
9.999999999999997780e-02 3.000000000000000444e-01 0.000000000000000000e+00
5.000000000000004441e-02 3.250000000000000111e-01 0.000000000000000000e+00
0.000000000000000000e+00 3.499999999999999778e-01 0.000000000000000000e+00
-5.000000000000004441e-02 3.750000000000000000e-01 0.000000000000000000e+00
-1.000000000000000888e-01 4.000000000000000222e-01 0.000000000000000000e+00
-1.500000000000000222e-01 4.249999999999999334e-01 0.000000000000000000e+00
-2.000000000000000666e-01 4.499999999999999556e-01 0.000000000000000000e+00
-2.500000000000000000e-01 4.749999999999999778e-01 0.000000000000000000e+00
-3.000000000000000444e-01 5.000000000000000000e-01 0.000000000000000000e+00
-3.500000000000000888e-01 5.250000000000002442e-01 0.000000000000000000e+00
-4.000000000000000222e-01 5.500000000000000444e-01 0.000000000000000000e+00
-4.500000000000000666e-01 5.750000000000000666e-01 0.000000000000000000e+00
-5.000000000000000000e-01 5.999999999999999778e-01 0.000000000000000000e+00
6.000000000000000888e-01 1.200000000000000233e-01 0.000000000000000000e+00
5.500000000000000444e-01 1.480000000000000204e-01 0.000000000000000000e+00
5.000000000000002220e-01 1.760000000000001008e-01 0.000000000000000000e+00
4.499999999999999001e-01 2.040000000000000147e-01 0.000000000000000000e+00
4.000000000000001332e-01 2.320000000000000395e-01 0.000000000000000000e+00
3.500000000000000888e-01 2.600000000000001199e-01 0.000000000000000000e+00
3.000000000000000444e-01 2.880000000000001448e-01 0.000000000000000000e+00
2.500000000000000000e-01 3.160000000000000586e-01 0.000000000000000000e+00
2.000000000000000111e-01 3.440000000000000835e-01 0.000000000000000000e+00
1.500000000000000222e-01 3.720000000000001084e-01 0.000000000000000000e+00
1.000000000000000888e-01 4.000000000000000222e-01 0.000000000000000000e+00
5.000000000000004441e-02 4.280000000000000471e-01 0.000000000000000000e+00
0.000000000000000000e+00 4.560000000000000719e-01 0.000000000000000000e+00
-4.999999999999993339e-02 4.839999999999999858e-01 0.000000000000000000e+00
-9.999999999999997780e-02 5.119999999999998996e-01 0.000000000000000000e+00
-1.499999999999999112e-01 5.400000000000000355e-01 0.000000000000000000e+00
-1.999999999999999556e-01 5.680000000000000604e-01 0.000000000000000000e+00
-2.500000000000000000e-01 5.960000000000000853e-01 0.000000000000000000e+00
-3.000000000000000444e-01 6.240000000000001101e-01 0.000000000000000000e+00
-3.500000000000000888e-01 6.520000000000001350e-01 0.000000000000000000e+00
-3.999999999999999112e-01 6.800000000000000488e-01 0.000000000000000000e+00
7.000000000000000666e-01 1.400000000000000133e-01 0.000000000000000000e+00
6.500000000000000222e-01 1.710000000000000686e-01 0.000000000000000000e+00
6.000000000000001998e-01 2.020000000000000129e-01 0.000000000000000000e+00
5.500000000000000444e-01 2.330000000000000404e-01 0.000000000000000000e+00
4.999999999999998890e-01 2.640000000000001235e-01 0.000000000000000000e+00
4.500000000000000666e-01 2.950000000000000400e-01 0.000000000000000000e+00
3.999999999999999112e-01 3.260000000000000120e-01 0.000000000000000000e+00
3.499999999999999778e-01 3.570000000000000395e-01 0.000000000000000000e+00
3.000000000000000444e-01 3.880000000000001226e-01 0.000000000000000000e+00
2.500000000000001110e-01 4.190000000000000391e-01 0.000000000000000000e+00
2.000000000000000111e-01 4.499999999999999556e-01 0.000000000000000000e+00
1.500000000000000222e-01 4.809999999999999831e-01 0.000000000000000000e+00
9.999999999999997780e-02 5.119999999999998996e-01 0.000000000000000000e+00
5.000000000000004441e-02 5.430000000000000382e-01 0.000000000000000000e+00
0.000000000000000000e+00 5.740000000000000657e-01 0.000000000000000000e+00
-4.999999999999993339e-02 6.050000000000002043e-01 0.000000000000000000e+00
-9.999999999999997780e-02 6.360000000000002318e-01 0.000000000000000000e+00
-1.499999999999999944e-01 6.670000000000002593e-01 0.000000000000000000e+00
-2.000000000000000666e-01 6.980000000000002869e-01 0.000000000000000000e+00
-2.500000000000001110e-01 7.290000000000003144e-01 0.000000000000000000e+00
-2.999999999999999334e-01 7.600000000000000089e-01 0.000000000000000000e+00
8.000000000000000444e-01 1.600000000000000311e-01 0.000000000000000000e+00
7.500000000000000000e-01 1.939999999999999780e-01 0.000000000000000000e+00
7.000000000000000666e-01 2.280000000000000915e-01 0.000000000000000000e+00
6.500000000000000222e-01 2.620000000000001217e-01 0.000000000000000000e+00
5.999999999999999778e-01 2.960000000000001519e-01 0.000000000000000000e+00
5.500000000000000444e-01 3.300000000000000711e-01 0.000000000000000000e+00
4.999999999999998890e-01 3.639999999999999902e-01 0.000000000000000000e+00
4.499999999999999001e-01 3.980000000000000204e-01 0.000000000000000000e+00
4.000000000000000222e-01 4.320000000000000506e-01 0.000000000000000000e+00
3.500000000000000888e-01 4.660000000000000808e-01 0.000000000000000000e+00
3.000000000000000444e-01 5.000000000000000000e-01 0.000000000000000000e+00
2.500000000000000000e-01 5.340000000000000302e-01 0.000000000000000000e+00
1.999999999999999556e-01 5.680000000000000604e-01 0.000000000000000000e+00
1.499999999999999389e-01 6.020000000000002016e-01 0.000000000000000000e+00
1.000000000000000056e-01 6.360000000000002318e-01 0.000000000000000000e+00
5.000000000000004441e-02 6.700000000000001510e-01 0.000000000000000000e+00
0.000000000000000000e+00 7.040000000000002922e-01 0.000000000000000000e+00
-5.000000000000004441e-02 7.380000000000003224e-01 0.000000000000000000e+00
-9.999999999999997780e-02 7.720000000000002416e-01 0.000000000000000000e+00
-1.500000000000000222e-01 8.060000000000001608e-01 0.000000000000000000e+00
-1.999999999999999556e-01 8.400000000000000799e-01 0.000000000000000000e+00
9.000000000000000222e-01 1.800000000000000211e-01 0.000000000000000000e+00
8.500000000000001998e-01 2.169999999999999707e-01 0.000000000000000000e+00
8.000000000000000444e-01 2.540000000000000591e-01 0.000000000000000000e+00
7.500000000000002220e-01 2.910000000000001474e-01 0.000000000000000000e+00
7.000000000000001776e-01 3.280000000000000693e-01 0.000000000000000000e+00
6.500000000000002442e-01 3.649999999999999911e-01 0.000000000000000000e+00
5.999999999999999778e-01 4.019999999999999685e-01 0.000000000000000000e+00
5.500000000000000444e-01 4.390000000000000568e-01 0.000000000000000000e+00
4.999999999999998890e-01 4.760000000000000897e-01 0.000000000000000000e+00
4.500000000000001776e-01 5.130000000000001226e-01 0.000000000000000000e+00
4.000000000000000222e-01 5.500000000000000444e-01 0.000000000000000000e+00
3.499999999999999778e-01 5.870000000000000773e-01 0.000000000000000000e+00
3.000000000000000444e-01 6.240000000000001101e-01 0.000000000000000000e+00
2.500000000000001110e-01 6.610000000000000320e-01 0.000000000000000000e+00
2.000000000000000666e-01 6.980000000000002869e-01 0.000000000000000000e+00
1.500000000000000222e-01 7.350000000000000977e-01 0.000000000000000000e+00
9.999999999999995004e-02 7.720000000000002416e-01 0.000000000000000000e+00
4.999999999999993339e-02 8.090000000000001634e-01 0.000000000000000000e+00
0.000000000000000000e+00 8.460000000000000853e-01 0.000000000000000000e+00
-5.000000000000004441e-02 8.830000000000001181e-01 0.000000000000000000e+00
-9.999999999999997780e-02 9.200000000000000400e-01 0.000000000000000000e+00
1.000000000000000000e+00 2.000000000000000111e-01 0.000000000000000000e+00
9.499999999999999556e-01 2.399999999999999911e-01 0.000000000000000000e+00
9.000000000000000222e-01 2.800000000000000266e-01 0.000000000000000000e+00
8.499999999999999778e-01 3.200000000000000622e-01 0.000000000000000000e+00
8.000000000000000444e-01 3.599999999999999312e-01 0.000000000000000000e+00
7.500000000000000000e-01 4.000000000000000222e-01 0.000000000000000000e+00
6.999999999999999556e-01 4.400000000000000577e-01 0.000000000000000000e+00
6.499999999999999112e-01 4.799999999999999822e-01 0.000000000000000000e+00
5.999999999999999778e-01 5.200000000000000178e-01 0.000000000000000000e+00
5.500000000000000444e-01 5.600000000000000533e-01 0.000000000000000000e+00
5.000000000000000000e-01 5.999999999999999778e-01 0.000000000000000000e+00
4.499999999999999556e-01 6.400000000000000133e-01 0.000000000000000000e+00
3.999999999999999112e-01 6.800000000000000488e-01 0.000000000000000000e+00
3.499999999999999778e-01 7.199999999999999734e-01 0.000000000000000000e+00
2.999999999999999334e-01 7.600000000000000089e-01 0.000000000000000000e+00
2.500000000000000000e-01 8.000000000000000444e-01 0.000000000000000000e+00
1.999999999999999556e-01 8.400000000000000799e-01 0.000000000000000000e+00
1.499999999999999112e-01 8.800000000000001155e-01 0.000000000000000000e+00
9.999999999999997780e-02 9.200000000000000400e-01 0.000000000000000000e+00
4.999999999999993339e-02 9.600000000000000755e-01 0.000000000000000000e+00
0.000000000000000000e+00 1.000000000000000000e+00 0.000000000000000000e+00
