# vtk DataFile Version 2.0

ASCII

DATASET STRUCTURED_GRID
DIMENSIONS 21 21 1
POINTS 441 float
0.000000000000000000e+00 0.000000000000000000e+00 0.000000000000000000e+00
5.000000000000000278e-02 0.000000000000000000e+00 0.000000000000000000e+00
1.000000000000000056e-01 0.000000000000000000e+00 0.000000000000000000e+00
1.500000000000000222e-01 0.000000000000000000e+00 0.000000000000000000e+00
2.000000000000000111e-01 0.000000000000000000e+00 0.000000000000000000e+00
2.500000000000000000e-01 0.000000000000000000e+00 0.000000000000000000e+00
3.000000000000000444e-01 0.000000000000000000e+00 0.000000000000000000e+00
3.500000000000000333e-01 0.000000000000000000e+00 0.000000000000000000e+00
4.000000000000000222e-01 0.000000000000000000e+00 0.000000000000000000e+00
4.500000000000000111e-01 0.000000000000000000e+00 0.000000000000000000e+00
5.000000000000000000e-01 0.000000000000000000e+00 0.000000000000000000e+00
5.500000000000000444e-01 0.000000000000000000e+00 0.000000000000000000e+00
6.000000000000000888e-01 0.000000000000000000e+00 0.000000000000000000e+00
6.500000000000000222e-01 0.000000000000000000e+00 0.000000000000000000e+00
7.000000000000000666e-01 0.000000000000000000e+00 0.000000000000000000e+00
7.500000000000000000e-01 0.000000000000000000e+00 0.000000000000000000e+00
8.000000000000000444e-01 0.000000000000000000e+00 0.000000000000000000e+00
8.500000000000000888e-01 0.000000000000000000e+00 0.000000000000000000e+00
9.000000000000000222e-01 0.000000000000000000e+00 0.000000000000000000e+00
9.500000000000000666e-01 0.000000000000000000e+00 0.000000000000000000e+00
1.000000000000000000e+00 0.000000000000000000e+00 0.000000000000000000e+00
6.649999999999998967e-02 1.000000000000000056e-01 0.000000000000000000e+00
1.119041333133435762e-01 1.036729547863922407e-01 0.000000000000000000e+00
1.574582666266871878e-01 1.068459095727844893e-01 0.000000000000000000e+00
2.031623999400307690e-01 1.095188643591767513e-01 0.000000000000000000e+00
2.490165332533744169e-01 1.116918191455690268e-01 0.000000000000000000e+00
2.950206665667179373e-01 1.133647739319612463e-01 0.000000000000000000e+00
3.411747998800614967e-01 1.145377287183534931e-01 0.000000000000000000e+00
3.874789331934052061e-01 1.152106835047456979e-01 0.000000000000000000e+00
4.339330665067487880e-01 1.153836382911379715e-01 0.000000000000000000e+00
4.805371998200924089e-01 1.150565930775302170e-01 0.000000000000000000e+00
5.272913331334357911e-01 1.142295478639224759e-01 0.000000000000000000e+00
5.741954664467796565e-01 1.129025026503147622e-01 0.000000000000000000e+00
6.212495997601230613e-01 1.110754574367069647e-01 0.000000000000000000e+00
6.684537330734667826e-01 1.087484122230992223e-01 0.000000000000000000e+00
7.158078663868103764e-01 1.059213670094914517e-01 0.000000000000000000e+00
7.633119997001538426e-01 1.025943217958836945e-01 0.000000000000000000e+00
8.109661330134974033e-01 9.876727658227593687e-02 0.000000000000000000e+00
8.587702663268409475e-01 9.444023136866817880e-02 0.000000000000000000e+00
9.067243996401849193e-01 8.961318615506040641e-02 0.000000000000000000e+00
9.548285329535283195e-01 8.428614094145271685e-02 0.000000000000000000e+00
1.003082666266871703e+00 7.845909572784494357e-02 0.000000000000000000e+00
1.260000000000000009e-01 2.000000000000000111e-01 0.000000000000000000e+00
1.674655829702431098e-01 2.073217232520115361e-01 0.000000000000000000e+00
2.092311659404862689e-01 2.136434465040230879e-01 0.000000000000000000e+00
2.512967489107293950e-01 2.189651697560346666e-01 0.000000000000000000e+00
2.936623318809725158e-01 2.232868930080462166e-01 0.000000000000000000e+00
3.363279148512154926e-01 2.266086162600577658e-01 0.000000000000000000e+00
3.792934978214588249e-01 2.289303395120693141e-01 0.000000000000000000e+00
4.225590807917017910e-01 2.302520627640807782e-01 0.000000000000000000e+00
4.661246637619449462e-01 2.305737860160923802e-01 0.000000000000000000e+00
5.099902467321879573e-01 2.298955092681038703e-01 0.000000000000000000e+00
5.541558297024311575e-01 2.282172325201154428e-01 0.000000000000000000e+00
5.986214126726742135e-01 2.255389557721269589e-01 0.000000000000000000e+00
6.433869956429174586e-01 2.218606790241384463e-01 0.000000000000000000e+00
6.884525786131606706e-01 2.171824022761500439e-01 0.000000000000000000e+00
7.338181615834036275e-01 2.115041255281615573e-01 0.000000000000000000e+00
7.794837445536467735e-01 2.048258487801731809e-01 0.000000000000000000e+00
8.254493275238898864e-01 1.971475720321846925e-01 0.000000000000000000e+00
8.717149104941329663e-01 1.884692952841962588e-01 0.000000000000000000e+00
9.182804934643759021e-01 1.787910185362077409e-01 0.000000000000000000e+00
9.651460764346191379e-01 1.681127417882193054e-01 0.000000000000000000e+00
1.012311659404862230e+00 1.564344650402308690e-01 0.000000000000000000e+00
1.785000000000000198e-01 3.000000000000000444e-01 0.000000000000000000e+00
2.166815039801162079e-01 3.109222681927952814e-01 0.000000000000000000e+00
2.553130079602323743e-01 3.203445363855906280e-01 0.000000000000000000e+00
2.943945119403484911e-01 3.282668045783858068e-01 0.000000000000000000e+00
3.339260159204647249e-01 3.346890727711810398e-01 0.000000000000000000e+00
3.739075199005809091e-01 3.396113409639763825e-01 0.000000000000000000e+00
4.143390238806969328e-01 3.430336091567716128e-01 0.000000000000000000e+00
4.552205278608132399e-01 3.449558773495668973e-01 0.000000000000000000e+00
4.965520318409293310e-01 3.453781455423622915e-01 0.000000000000000000e+00
5.383335358210454835e-01 3.443004137351574068e-01 0.000000000000000000e+00
5.805650398011616975e-01 3.417226819279526873e-01 0.000000000000000000e+00
6.232465437812779729e-01 3.376449501207480219e-01 0.000000000000000000e+00
6.663780477613941988e-01 3.320672183135432998e-01 0.000000000000000000e+00
7.099595517415102641e-01 3.249894865063385208e-01 0.000000000000000000e+00
7.539910557216265019e-01 3.164117546991337959e-01 0.000000000000000000e+00
7.984725597017428012e-01 3.063340228919291253e-01 0.000000000000000000e+00
8.434040636818587178e-01 2.947562910847243423e-01 0.000000000000000000e+00
8.887855676619751399e-01 2.816785592775196134e-01 0.000000000000000000e+00
9.346170716420907354e-01 2.671008274703148277e-01 0.000000000000000000e+00
9.808985756222072805e-01 2.510230956631101518e-01 0.000000000000000000e+00
1.027630079602323665e+00 2.334453638559054189e-01 0.000000000000000000e+00
2.239999999999999769e-01 4.000000000000000222e-01 0.000000000000000000e+00
2.595471741852422576e-01 4.144508497187474605e-01 0.000000000000000000e+00
2.956943483704845832e-01 4.269016994374948415e-01 0.000000000000000000e+00
3.324415225557270093e-01 4.373525491562421652e-01 0.000000000000000000e+00
3.697886967409693137e-01 4.458033988749896537e-01 0.000000000000000000e+00
4.077358709262115521e-01 4.522542485937369183e-01 0.000000000000000000e+00
4.462830451114539465e-01 4.567050983124841812e-01 0.000000000000000000e+00
4.854302192966962748e-01 4.591559480312316088e-01 0.000000000000000000e+00
5.251773934819387035e-01 4.596067977499790347e-01 0.000000000000000000e+00
5.655245676671810662e-01 4.580576474687264033e-01 0.000000000000000000e+00
6.064717418524230297e-01 4.545084971874737700e-01 0.000000000000000000e+00
6.480189160376654822e-01 4.489593469062210795e-01 0.000000000000000000e+00
6.901660902229078687e-01 4.414101966249684983e-01 0.000000000000000000e+00
7.329132644081501891e-01 4.318610463437158042e-01 0.000000000000000000e+00
7.762604385933926654e-01 4.203118960624632194e-01 0.000000000000000000e+00
8.202076127786348536e-01 4.067627457812106329e-01 0.000000000000000000e+00
8.647547869638771978e-01 3.912135954999579335e-01 0.000000000000000000e+00
9.099019611491192538e-01 3.736644452187052323e-01 0.000000000000000000e+00
9.556491353343619100e-01 3.541152949374526404e-01 0.000000000000000000e+00
1.001996309519604056e+00 3.325661446561999357e-01 0.000000000000000000e+00
1.048943483704846358e+00 3.090169943749473958e-01 0.000000000000000000e+00
2.624999999999999556e-01 5.000000000000000000e-01 0.000000000000000000e+00
2.960560233744356506e-01 5.178841716182545074e-01 0.000000000000000000e+00
3.303620467488713186e-01 5.332683432365088461e-01 0.000000000000000000e+00
3.654180701233069595e-01 5.461525148547635711e-01 0.000000000000000000e+00
4.012240934977426843e-01 5.565366864730181273e-01 0.000000000000000000e+00
4.377801168721782155e-01 5.644208580912724038e-01 0.000000000000000000e+00
4.750861402466139416e-01 5.698050297095269556e-01 0.000000000000000000e+00
5.131421636210495851e-01 5.726892013277813387e-01 0.000000000000000000e+00
5.519481869954852016e-01 5.730733729460359971e-01 0.000000000000000000e+00
5.915042103699210685e-01 5.709575445642904867e-01 0.000000000000000000e+00
6.318102337443565197e-01 5.663417161825449186e-01 0.000000000000000000e+00
6.728662571187924435e-01 5.592258878007994038e-01 0.000000000000000000e+00
7.146722804932278406e-01 5.496100594190538313e-01 0.000000000000000000e+00
7.572283038676634881e-01 5.374942310373083121e-01 0.000000000000000000e+00
8.005343272420994971e-01 5.228784026555628461e-01 0.000000000000000000e+00
8.445903506165350905e-01 5.057625742738173225e-01 0.000000000000000000e+00
8.893963739909707122e-01 4.861467458920716855e-01 0.000000000000000000e+00
9.349523973654063624e-01 4.640309175103262129e-01 0.000000000000000000e+00
9.812584207398415970e-01 4.394150891285807381e-01 0.000000000000000000e+00
1.028314444114277748e+00 4.122992607468352055e-01 0.000000000000000000e+00
1.076120467488713039e+00 3.826834323650898373e-01 0.000000000000000000e+00
2.939999999999999836e-01 6.000000000000000888e-01 0.000000000000000000e+00
3.261996737905816235e-01 6.211995249869771696e-01 0.000000000000000000e+00
3.592993475811632753e-01 6.393990499739551359e-01 0.000000000000000000e+00
3.932990213717447170e-01 6.545985749609321003e-01 0.000000000000000000e+00
4.281986951623263371e-01 6.667980999479093951e-01 0.000000000000000000e+00
4.639983689529079691e-01 6.759976249348866872e-01 0.000000000000000000e+00
5.006980427434897241e-01 6.821971499218641988e-01 0.000000000000000000e+00
5.382977165340713244e-01 6.853966749088413746e-01 0.000000000000000000e+00
5.767973903246528256e-01 6.855961998958187698e-01 0.000000000000000000e+00
6.161970641152344497e-01 6.827957248827960512e-01 0.000000000000000000e+00
6.564967379058160857e-01 6.769952498697734411e-01 0.000000000000000000e+00
6.976964116963977336e-01 6.681947748567509393e-01 0.000000000000000000e+00
7.397960854869792824e-01 6.563942998437281018e-01 0.000000000000000000e+00
7.827957592775607321e-01 6.415938248307055947e-01 0.000000000000000000e+00
8.266954330681424157e-01 6.237933498176828628e-01 0.000000000000000000e+00
8.714951068587242222e-01 6.029928748046601283e-01 0.000000000000000000e+00
9.171947806493057076e-01 5.791923997916375022e-01 0.000000000000000000e+00
9.637944544398870939e-01 5.523919247786148734e-01 0.000000000000000000e+00
1.011294128230469047e+00 5.225914497655921309e-01 0.000000000000000000e+00
1.059693802021050679e+00 4.897909747525693858e-01 0.000000000000000000e+00
1.108993475811632434e+00 4.539904997395467490e-01 0.000000000000000000e+00
3.184999999999999498e-01 7.000000000000000666e-01 0.000000000000000000e+00
3.499679917822953179e-01 7.243749282357972996e-01 0.000000000000000000e+00
3.824859835645908479e-01 7.452498564715952512e-01 0.000000000000000000e+00
4.160539753468861512e-01 7.626247847073927000e-01 0.000000000000000000e+00
4.506719671291815610e-01 7.764997129431896461e-01 0.000000000000000000e+00
4.863399589114768551e-01 7.868746411789870887e-01 0.000000000000000000e+00
5.230579506937723666e-01 7.937495694147846947e-01 0.000000000000000000e+00
5.608259424760676515e-01 7.971244976505819091e-01 0.000000000000000000e+00
5.996439342583630427e-01 7.969994258863795089e-01 0.000000000000000000e+00
6.395119260406583184e-01 7.933743541221770501e-01 0.000000000000000000e+00
6.804299178229540335e-01 7.862492823579744217e-01 0.000000000000000000e+00
7.223979096052494109e-01 7.756242105937720677e-01 0.000000000000000000e+00
7.654159013875447837e-01 7.614991388295693220e-01 0.000000000000000000e+00
8.094838931698400408e-01 7.438740670653666287e-01 0.000000000000000000e+00
8.546018849521355154e-01 7.227489953011640988e-01 0.000000000000000000e+00
9.007698767344309854e-01 6.981239235369618434e-01 0.000000000000000000e+00
9.479878685167264507e-01 6.699988517727589743e-01 0.000000000000000000e+00
9.962558602990219114e-01 6.383737800085563796e-01 0.000000000000000000e+00
1.045573852081316923e+00 6.032487082443538373e-01 0.000000000000000000e+00
1.095941843863612153e+00 5.646236364801512364e-01 0.000000000000000000e+00
1.147359835645907822e+00 5.224985647159487989e-01 0.000000000000000000e+00
3.359999999999999654e-01 8.000000000000000444e-01 0.000000000000000000e+00
3.673491502812525344e-01 8.273892626146235330e-01 0.000000000000000000e+00
3.998983005625053044e-01 8.507785252292473510e-01 0.000000000000000000e+00
4.336474508437578312e-01 8.701677878438710545e-01 0.000000000000000000e+00
4.685966011250104479e-01 8.855570504584948655e-01 0.000000000000000000e+00
5.047457514062630990e-01 8.969463130731184508e-01 0.000000000000000000e+00
5.420949016875157289e-01 9.043355756877420326e-01 0.000000000000000000e+00
5.806440519687683377e-01 9.077248383023652778e-01 0.000000000000000000e+00
6.203932022500209253e-01 9.071141009169892966e-01 0.000000000000000000e+00
6.613423525312736029e-01 9.025033635316129788e-01 0.000000000000000000e+00
7.034915028125263703e-01 8.938926261462363243e-01 0.000000000000000000e+00
7.468406530937790055e-01 8.812818887608599994e-01 0.000000000000000000e+00
7.913898033750317307e-01 8.646711513754836709e-01 0.000000000000000000e+00
8.371389536562842126e-01 8.440604139901075609e-01 0.000000000000000000e+00
8.840881039375368955e-01 8.194496766047312253e-01 0.000000000000000000e+00
9.322372542187893352e-01 7.908389392193548861e-01 0.000000000000000000e+00
9.815864045000415317e-01 7.582282018339783214e-01 0.000000000000000000e+00
1.032135554781294706e+00 7.216174644486019751e-01 0.000000000000000000e+00
1.083884705062547305e+00 6.810067270632256253e-01 0.000000000000000000e+00
1.136833855343800215e+00 6.363959896778492720e-01 0.000000000000000000e+00
1.190983005625052549e+00 5.877852522924731371e-01 0.000000000000000000e+00
3.465000000000000302e-01 9.000000000000002442e-01 0.000000000000000000e+00
3.783297017199984125e-01 9.302224024165095528e-01 0.000000000000000000e+00
4.115094034399968681e-01 9.559448048330184688e-01 0.000000000000000000e+00
4.460391051599954526e-01 9.771672072495281025e-01 0.000000000000000000e+00
4.819188068799937774e-01 9.938896096660367885e-01 0.000000000000000000e+00
5.191485085999921756e-01 1.006112012082545970e+00 0.000000000000000000e+00
5.577282103199907581e-01 1.013834414499055203e+00 0.000000000000000000e+00
5.976579120399893030e-01 1.017056816915564266e+00 0.000000000000000000e+00
6.389376137599875882e-01 1.015779219332073602e+00 0.000000000000000000e+00
6.815673154799861688e-01 1.010001621748582767e+00 0.000000000000000000e+00
7.255470171999844897e-01 9.997240241650919845e-01 0.000000000000000000e+00
7.708767189199829950e-01 9.849464265816011421e-01 0.000000000000000000e+00
8.175564206399814626e-01 9.656688289981101292e-01 0.000000000000000000e+00
8.655861223599797816e-01 9.418912314146196119e-01 0.000000000000000000e+00
9.149658240799785069e-01 9.136136338311287020e-01 0.000000000000000000e+00
9.656955257999768616e-01 8.808360362476377325e-01 0.000000000000000000e+00
1.017775227519974734e+00 8.435584386641468146e-01 0.000000000000000000e+00
1.071204929239973458e+00 8.017808410806562813e-01 0.000000000000000000e+00
1.125984630959972144e+00 7.555032434971652444e-01 0.000000000000000000e+00
1.182114332679971014e+00 7.047256459136743700e-01 0.000000000000000000e+00
1.239594034399968958e+00 6.494480483301836582e-01 0.000000000000000000e+00
3.499999999999999778e-01 1.000000000000000000e+00 0.000000000000000000e+00
3.828946609406725932e-01 1.032855339059327360e+00 0.000000000000000000e+00
4.172893218813452654e-01 1.060710678118654382e+00 0.000000000000000000e+00
4.531839828220179389e-01 1.083566017177982621e+00 0.000000000000000000e+00
4.905786437626904473e-01 1.101421356237309634e+00 0.000000000000000000e+00
5.294733047033630680e-01 1.114276695296636976e+00 0.000000000000000000e+00
5.698679656440358565e-01 1.122132034355964425e+00 0.000000000000000000e+00
6.117626265847083689e-01 1.124987373415291314e+00 0.000000000000000000e+00
6.551572875253808270e-01 1.122842712474618976e+00 0.000000000000000000e+00
7.000519484660536751e-01 1.115698051533946522e+00 0.000000000000000000e+00
7.464466094067263580e-01 1.103553390593273731e+00 0.000000000000000000e+00
7.943412703473989867e-01 1.086408729652601046e+00 0.000000000000000000e+00
8.437359312880714501e-01 1.064264068711928468e+00 0.000000000000000000e+00
8.946305922287440815e-01 1.037119407771255775e+00 0.000000000000000000e+00
9.470252531694167697e-01 1.004974746830582966e+00 0.000000000000000000e+00
1.000919914110089515e+00 9.678300858899104853e-01 0.000000000000000000e+00
1.056314575050762095e+00 9.256854249492377784e-01 0.000000000000000000e+00
1.113209235991434953e+00 8.785407640085651781e-01 0.000000000000000000e+00
1.171603896932106981e+00 8.263961030678925734e-01 0.000000000000000000e+00
1.231498557872779953e+00 7.692514421272200753e-01 0.000000000000000000e+00
1.292893218813452538e+00 7.071067811865474617e-01 0.000000000000000000e+00
3.464999999999999747e-01 1.100000000000000089e+00 0.000000000000000000e+00
3.810275975834908069e-01 1.135270298280001144e+00 0.000000000000000000e+00
4.172051951669816239e-01 1.165040596560003250e+00 0.000000000000000000e+00
4.550327927504724812e-01 1.189310894840005073e+00 0.000000000000000000e+00
4.945103903339632678e-01 1.208081193120006169e+00 0.000000000000000000e+00
5.356379879174539838e-01 1.221351491400007871e+00 0.000000000000000000e+00
5.784155855009449620e-01 1.229121789680009513e+00 0.000000000000000000e+00
6.228431830844357586e-01 1.231392087960010651e+00 0.000000000000000000e+00
6.689207806679264845e-01 1.228162386240012394e+00 0.000000000000000000e+00
7.166483782514174727e-01 1.219432684520014298e+00 0.000000000000000000e+00
7.660259758349082793e-01 1.205202982800015477e+00 0.000000000000000000e+00
8.170535734183992371e-01 1.185473281080017038e+00 0.000000000000000000e+00
8.697311710018897912e-01 1.160243579360018540e+00 0.000000000000000000e+00
9.240587685853809408e-01 1.129513877640019981e+00 0.000000000000000000e+00
9.800363661688720196e-01 1.093284175920021584e+00 0.000000000000000000e+00
1.037663963752362584e+00 1.051554474200023570e+00 0.000000000000000000e+00
1.096941561335853077e+00 1.004324772480024830e+00 0.000000000000000000e+00
1.157869158919343944e+00 9.515950707600262515e-01 0.000000000000000000e+00
1.220446756502834962e+00 8.933653690400280567e-01 0.000000000000000000e+00
1.284674354086325909e+00 8.296356673200292464e-01 0.000000000000000000e+00
1.350551951669816786e+00 7.604059656000310419e-01 0.000000000000000000e+00
3.359999999999999654e-01 1.200000000000000178e+00 0.000000000000000000e+00
3.727107373853763006e-01 1.237450849718747081e+00 0.000000000000000000e+00
4.112214747707527707e-01 1.268901699437495312e+00 0.000000000000000000e+00
4.515322121561290980e-01 1.294352549156242427e+00 0.000000000000000000e+00
4.936429495415053381e-01 1.313803398874989314e+00 0.000000000000000000e+00
5.375536869268817686e-01 1.327254248593737085e+00 0.000000000000000000e+00
5.832644243122581118e-01 1.334705098312484406e+00 0.000000000000000000e+00
6.307751616976344788e-01 1.336155948031231500e+00 0.000000000000000000e+00
6.800858990830107587e-01 1.331606797749979476e+00 0.000000000000000000e+00
7.311966364683872843e-01 1.321057647468726337e+00 0.000000000000000000e+00
7.841073738537636117e-01 1.304508497187473859e+00 0.000000000000000000e+00
8.388181112391399630e-01 1.281959346906221153e+00 0.000000000000000000e+00
8.953288486245163380e-01 1.253410196624968664e+00 0.000000000000000000e+00
9.536395860098925148e-01 1.218861046343715948e+00 0.000000000000000000e+00
1.013750323395269159e+00 1.178311896062463004e+00 0.000000000000000000e+00
1.075661060780645606e+00 1.131762745781210722e+00 0.000000000000000000e+00
1.139371798166021410e+00 1.079213595499957989e+00 0.000000000000000000e+00
1.204882535551398348e+00 1.020664445218705474e+00 0.000000000000000000e+00
1.272193272936774200e+00 9.561152949374528420e-01 0.000000000000000000e+00
1.341304010322150742e+00 8.855661446561998718e-01 0.000000000000000000e+00
1.412214747707527085e+00 8.090169943749474513e-01 0.000000000000000000e+00
3.184999999999999498e-01 1.300000000000000044e+00 0.000000000000000000e+00
3.579250717642025181e-01 1.339382008217704145e+00 0.000000000000000000e+00
3.993001435284050382e-01 1.372264016435409406e+00 0.000000000000000000e+00
4.426252152926075656e-01 1.398646024653114273e+00 0.000000000000000000e+00
4.879002870568101558e-01 1.418528032870818745e+00 0.000000000000000000e+00
5.351253588210127532e-01 1.431910041088523045e+00 0.000000000000000000e+00
5.843004305852153024e-01 1.438792049306227616e+00 0.000000000000000000e+00
6.354255023494177479e-01 1.439174057523931793e+00 0.000000000000000000e+00
6.885005741136202007e-01 1.433056065741637131e+00 0.000000000000000000e+00
7.435256458778229938e-01 1.420438073959341629e+00 0.000000000000000000e+00
8.005007176420255721e-01 1.401320082177046178e+00 0.000000000000000000e+00
8.594257894062281578e-01 1.375702090394750776e+00 0.000000000000000000e+00
9.203008611704306396e-01 1.343584098612455202e+00 0.000000000000000000e+00
9.831259329346335729e-01 1.304966106830160122e+00 0.000000000000000000e+00
1.047901004698835958e+00 1.259848115047864203e+00 0.000000000000000000e+00
1.114626076463038684e+00 1.208230123265569222e+00 0.000000000000000000e+00
1.183301148227240640e+00 1.150112131483273403e+00 0.000000000000000000e+00
1.253926219991443602e+00 1.085494139700978078e+00 0.000000000000000000e+00
1.326501291755646017e+00 1.014376147918683024e+00 0.000000000000000000e+00
1.401026363519848328e+00 9.367581561363873544e-01 0.000000000000000000e+00
1.477501435284051201e+00 8.526401643540920672e-01 0.000000000000000000e+00
2.939999999999999281e-01 1.400000000000000133e+00 0.000000000000000000e+00
3.366504750130225876e-01 1.441050326209418087e+00 0.000000000000000000e+00
3.814009500260452379e-01 1.475100652418837477e+00 0.000000000000000000e+00
4.282514250390679345e-01 1.502150978628255862e+00 0.000000000000000000e+00
4.772019000520906773e-01 1.522201304837673241e+00 0.000000000000000000e+00
5.282523750651131333e-01 1.535251631047092058e+00 0.000000000000000000e+00
5.814028500781360798e-01 1.541301957256510313e+00 0.000000000000000000e+00
6.366533250911584618e-01 1.540352283465928673e+00 0.000000000000000000e+00
6.940038001041811677e-01 1.532402609675347360e+00 0.000000000000000000e+00
7.534542751172041974e-01 1.517452935884765486e+00 0.000000000000000000e+00
8.150047501302266628e-01 1.495503262094183716e+00 0.000000000000000000e+00
8.786552251432493410e-01 1.466553588303602496e+00 0.000000000000000000e+00
9.444057001562717879e-01 1.430603914513020936e+00 0.000000000000000000e+00
1.012256175169294448e+00 1.387654240722439036e+00 0.000000000000000000e+00
1.082206650182317320e+00 1.337704566931857464e+00 0.000000000000000000e+00
1.154257125195340183e+00 1.280754893141275996e+00 0.000000000000000000e+00
1.228407600208363037e+00 1.216805219350694189e+00 0.000000000000000000e+00
1.304658075221385660e+00 1.145855545560112487e+00 0.000000000000000000e+00
1.383008550234408052e+00 1.067905871769530890e+00 0.000000000000000000e+00
1.463459025247431100e+00 9.829561979789491755e-01 0.000000000000000000e+00
1.546009500260453251e+00 8.910065241883678988e-01 0.000000000000000000e+00
2.624999999999999556e-01 1.500000000000000000e+00 0.000000000000000000e+00
3.088658283817454775e-01 1.542443976625563540e+00 0.000000000000000000e+00
3.574816567634909736e-01 1.577387953251128794e+00 0.000000000000000000e+00
4.083474851452365550e-01 1.604831929876693097e+00 0.000000000000000000e+00
4.614633135269820552e-01 1.624775906502257783e+00 0.000000000000000000e+00
5.168291419087274186e-01 1.637219883127821518e+00 0.000000000000000000e+00
5.744449702904731447e-01 1.642163859753385857e+00 0.000000000000000000e+00
6.343107986722185121e-01 1.639607836378949912e+00 0.000000000000000000e+00
6.964266270539639647e-01 1.629551813004514793e+00 0.000000000000000000e+00
7.607924554357095026e-01 1.611995789630078946e+00 0.000000000000000000e+00
8.274082838174550147e-01 1.586939766255643480e+00 0.000000000000000000e+00
8.962741121992006121e-01 1.554383742881207731e+00 0.000000000000000000e+00
9.673899405809458507e-01 1.514327719506772141e+00 0.000000000000000000e+00
1.040755768962691619e+00 1.466771696132336489e+00 0.000000000000000000e+00
1.116371597344437472e+00 1.411715672757900775e+00 0.000000000000000000e+00
1.194237425726182522e+00 1.349159649383464998e+00 0.000000000000000000e+00
1.274353254107928324e+00 1.279103626009029160e+00 0.000000000000000000e+00
1.356719082489673767e+00 1.201547602634593925e+00 0.000000000000000000e+00
1.441334910871418629e+00 1.116491579260157962e+00 0.000000000000000000e+00
1.528200739253164908e+00 1.023935555885722382e+00 0.000000000000000000e+00
1.617316567634910385e+00 9.238795325112867385e-01 0.000000000000000000e+00
2.239999999999999214e-01 1.600000000000000089e+00 0.000000000000000000e+00
2.745491502812525408e-01 1.643552825814757590e+00 0.000000000000000000e+00
3.274983005625051735e-01 1.679105651629515306e+00 0.000000000000000000e+00
3.828474508437578194e-01 1.706658477444273236e+00 0.000000000000000000e+00
4.405966011250104786e-01 1.726211303259031382e+00 0.000000000000000000e+00
5.007457514062629844e-01 1.737764129073788633e+00 0.000000000000000000e+00
5.632949016875157255e-01 1.741316954888545876e+00 0.000000000000000000e+00
6.282440519687683134e-01 1.736869780703303334e+00 0.000000000000000000e+00
6.955932022500209699e-01 1.724422606518061452e+00 0.000000000000000000e+00
7.653423525312734732e-01 1.703975432332819118e+00 0.000000000000000000e+00
8.374915028125263783e-01 1.675528258147576999e+00 0.000000000000000000e+00
9.120406530937789080e-01 1.639081083962333985e+00 0.000000000000000000e+00
9.889898033750315065e-01 1.594633909777092295e+00 0.000000000000000000e+00
1.068338953656284396e+00 1.542186735591849711e+00 0.000000000000000000e+00
1.150088103937536799e+00 1.481739561406607564e+00 0.000000000000000000e+00
1.234237254218789381e+00 1.413292387221365409e+00 0.000000000000000000e+00
1.320786404500041700e+00 1.336845213036122360e+00 0.000000000000000000e+00
1.409735554781295086e+00 1.252398038850880635e+00 0.000000000000000000e+00
1.501084705062547098e+00 1.159950864665637793e+00 0.000000000000000000e+00
1.594833855343799955e+00 1.059503690480395610e+00 0.000000000000000000e+00
1.690983005625052327e+00 9.510565162951534202e-01 0.000000000000000000e+00
1.784999999999998810e-01 1.700000000000000178e+00 0.000000000000000000e+00
2.336777318072046916e-01 1.744368496019883752e+00 0.000000000000000000e+00
2.914054636144094435e-01 1.780236992039768040e+00 0.000000000000000000e+00
3.516831954216142475e-01 1.807605488059651710e+00 0.000000000000000000e+00
4.145109272288188262e-01 1.826473984079536095e+00 0.000000000000000000e+00
4.798886590360235127e-01 1.836842480099419195e+00 0.000000000000000000e+00
5.478163908432284179e-01 1.838710976119303009e+00 0.000000000000000000e+00
6.182941226504329313e-01 1.832079472139186427e+00 0.000000000000000000e+00
6.913218544576377189e-01 1.816947968159070781e+00 0.000000000000000000e+00
7.668995862648423367e-01 1.793316464178954295e+00 0.000000000000000000e+00
8.450273180720473398e-01 1.761184960198838523e+00 0.000000000000000000e+00
9.257050498792522841e-01 1.720553456218722355e+00 0.000000000000000000e+00
1.008932781686456837e+00 1.671421952238606234e+00 0.000000000000000000e+00
1.094710513493661441e+00 1.613790448258489718e+00 0.000000000000000000e+00
1.183038245300866320e+00 1.547658944278373472e+00 0.000000000000000000e+00
1.273915977108070585e+00 1.473027440298257495e+00 0.000000000000000000e+00
1.367343708915276013e+00 1.389895936318140901e+00 0.000000000000000000e+00
1.463321440722480826e+00 1.298264432338025021e+00 0.000000000000000000e+00
1.561849172529685026e+00 1.198132928357908522e+00 0.000000000000000000e+00
1.662926904336890166e+00 1.089501424377792738e+00 0.000000000000000000e+00
1.766554636144094470e+00 9.723699203976767791e-01 0.000000000000000000e+00
1.259999999999999731e-01 1.800000000000000044e+00 0.000000000000000000e+00
1.862282767479884193e-01 1.844884417029756918e+00 0.000000000000000000e+00
2.491565534959769013e-01 1.880768834059513450e+00 0.000000000000000000e+00
3.147848302439653634e-01 1.907653251089270974e+00 0.000000000000000000e+00
3.831131069919536114e-01 1.925537668119027934e+00 0.000000000000000000e+00
4.541413837399421727e-01 1.934422085148784554e+00 0.000000000000000000e+00
5.278696604879306031e-01 1.934306502178541498e+00 0.000000000000000000e+00
6.042979372359191803e-01 1.925190919208298101e+00 0.000000000000000000e+00
6.834262139839074601e-01 1.907075336238055252e+00 0.000000000000000000e+00
7.652544907318959977e-01 1.879959753267812284e+00 0.000000000000000000e+00
8.497827674798845710e-01 1.843844170297569196e+00 0.000000000000000000e+00
9.370110442278729579e-01 1.798728587327326212e+00 0.000000000000000000e+00
1.026939320975861492e+00 1.744613004357082442e+00 0.000000000000000000e+00
1.119567597723850172e+00 1.681497421386839664e+00 0.000000000000000000e+00
1.214895874471838333e+00 1.609381838416596544e+00 0.000000000000000000e+00
1.312924151219827307e+00 1.528266255446353306e+00 0.000000000000000000e+00
1.413652427967815095e+00 1.438150672476109726e+00 0.000000000000000000e+00
1.517080704715803918e+00 1.339035089505866916e+00 0.000000000000000000e+00
1.623208981463792222e+00 1.230919506535623986e+00 0.000000000000000000e+00
1.732037258211780451e+00 1.113803923565380938e+00 0.000000000000000000e+00
1.843565534959769270e+00 9.876883405951376593e-01 0.000000000000000000e+00
6.649999999999992029e-02 1.900000000000000133e+00 0.000000000000000000e+00
1.321770452136078189e-01 1.945095866686656461e+00 0.000000000000000000e+00
2.007040904272154036e-01 1.980691733373312946e+00 0.000000000000000000e+00
2.720811356408234238e-01 2.006787600059969812e+00 0.000000000000000000e+00
3.463081808544308804e-01 2.023383466746626169e+00 0.000000000000000000e+00
4.233852260680386337e-01 2.030479333433282463e+00 0.000000000000000000e+00
5.033122712816464617e-01 2.028075200119938692e+00 0.000000000000000000e+00
5.860893164952543088e-01 2.016171066806594414e+00 0.000000000000000000e+00
6.717163617088618421e-01 1.994766933493251626e+00 0.000000000000000000e+00
7.601934069224698387e-01 1.963862800179907442e+00 0.000000000000000000e+00
8.515204521360772993e-01 1.923458666866564082e+00 0.000000000000000000e+00
9.456974973496856673e-01 1.873554533553220214e+00 0.000000000000000000e+00
1.042724542563293388e+00 1.814150400239876948e+00 0.000000000000000000e+00
1.142601587776900685e+00 1.745246266926533618e+00 0.000000000000000000e+00
1.245328632990508666e+00 1.666842133613189558e+00 0.000000000000000000e+00
1.350905678204116445e+00 1.578938000299846323e+00 0.000000000000000000e+00
1.459332723417724020e+00 1.481533866986501913e+00 0.000000000000000000e+00
1.570609768631332059e+00 1.374629733673158549e+00 0.000000000000000000e+00
1.684736813844939674e+00 1.258225600359814900e+00 0.000000000000000000e+00
1.801713859058546863e+00 1.132321467046471852e+00 0.000000000000000000e+00
1.921540904272155181e+00 9.969173337331279638e-01 0.000000000000000000e+00
0.000000000000000000e+00 2.000000000000000000e+00 0.000000000000000000e+00
7.149999999999998024e-02 2.044999999999999929e+00 0.000000000000000000e+00
1.460000000000000187e-01 2.080000000000000071e+00 0.000000000000000000e+00
2.235000000000000320e-01 2.105000000000000426e+00 0.000000000000000000e+00
3.039999999999999369e-01 2.120000000000000107e+00 0.000000000000000000e+00
3.874999999999999556e-01 2.125000000000000000e+00 0.000000000000000000e+00
4.740000000000001990e-01 2.120000000000000107e+00 0.000000000000000000e+00
5.635000000000000009e-01 2.104999999999999538e+00 0.000000000000000000e+00
6.559999999999999165e-01 2.080000000000000071e+00 0.000000000000000000e+00
7.514999999999999458e-01 2.044999999999999929e+00 0.000000000000000000e+00
8.500000000000000888e-01 2.000000000000000000e+00 0.000000000000000000e+00
9.515000000000002345e-01 1.944999999999999618e+00 0.000000000000000000e+00
1.056000000000000050e+00 1.879999999999999893e+00 0.000000000000000000e+00
1.163499999999999757e+00 1.804999999999999716e+00 0.000000000000000000e+00
1.274000000000000243e+00 1.719999999999999751e+00 0.000000000000000000e+00
1.387500000000000178e+00 1.625000000000000000e+00 0.000000000000000000e+00
1.504000000000000004e+00 1.519999999999999796e+00 0.000000000000000000e+00
1.623500000000000387e+00 1.404999999999999805e+00 0.000000000000000000e+00
1.746000000000000218e+00 1.279999999999999805e+00 0.000000000000000000e+00
1.871500000000000385e+00 1.145000000000000018e+00 0.000000000000000000e+00
2.000000000000000000e+00 1.000000000000000000e+00 0.000000000000000000e+00
