# vtk DataFile Version 2.0

ASCII

DATASET STRUCTURED_GRID
DIMENSIONS 21 21 1
POINTS 441 float
-7.071067811865476838e-01 -7.071067811865474617e-01 0.000000000000000000e+00
-6.494480483301838802e-01 -7.604059656000308198e-01 0.000000000000000000e+00
-5.877852522924731371e-01 -8.090169943749476733e-01 0.000000000000000000e+00
-5.224985647159490210e-01 -8.526401643540921782e-01 0.000000000000000000e+00
-4.539904997395469155e-01 -8.910065241883676768e-01 0.000000000000000000e+00
-3.826834323650899483e-01 -9.238795325112869605e-01 0.000000000000000000e+00
-3.090169943749477288e-01 -9.510565162951536422e-01 0.000000000000000000e+00
-2.334453638559057520e-01 -9.723699203976763350e-01 0.000000000000000000e+00
-1.564344650402311743e-01 -9.876883405951379924e-01 0.000000000000000000e+00
-7.845909572784515174e-02 -9.969173337331280749e-01 0.000000000000000000e+00
-2.775557561562891351e-16 -9.999999999999998890e-01 0.000000000000000000e+00
7.845909572784487418e-02 -9.969173337331279638e-01 0.000000000000000000e+00
1.564344650402306747e-01 -9.876883405951376593e-01 0.000000000000000000e+00
2.334453638559051691e-01 -9.723699203976766681e-01 0.000000000000000000e+00
3.090169943749472292e-01 -9.510565162951537532e-01 0.000000000000000000e+00
3.826834323650894487e-01 -9.238795325112870716e-01 0.000000000000000000e+00
4.539904997395465824e-01 -8.910065241883681209e-01 0.000000000000000000e+00
5.224985647159487989e-01 -8.526401643540922892e-01 0.000000000000000000e+00
5.877852522924731371e-01 -8.090169943749476733e-01 0.000000000000000000e+00
6.494480483301834361e-01 -7.604059656000312639e-01 0.000000000000000000e+00
7.071067811865474617e-01 -7.071067811865476838e-01 0.000000000000000000e+00
-7.604059656000310419e-01 -6.494480483301836582e-01 0.000000000000000000e+00
-6.974173143023189025e-01 -6.974173143023186805e-01 0.000000000000000000e+00
-6.304245998232600456e-01 -7.411672401997434489e-01 0.000000000000000000e+00
-5.598079938053874827e-01 -7.804280931809737254e-01 0.000000000000000000e+00
-4.859700103876371524e-01 -8.149578170318215742e-01 0.000000000000000000e+00
-4.093330245718317384e-01 -8.445435245224489629e-01 0.000000000000000000e+00
-3.303366681403409610e-01 -8.690028099279291096e-01 0.000000000000000000e+00
-2.494351191799506207e-01 -8.881848736201994887e-01 0.000000000000000000e+00
-1.670943019229277349e-01 -9.019714517979148249e-01 0.000000000000000000e+00
-8.378901416919352918e-02 -9.102775456221060546e-01 0.000000000000000000e+00
-2.046973701652632371e-16 -9.130519452622907206e-01 0.000000000000000000e+00
8.378901416919290468e-02 -9.102775456221064987e-01 0.000000000000000000e+00
1.670943019229274851e-01 -9.019714517979148249e-01 0.000000000000000000e+00
2.494351191799498990e-01 -8.881848736202000438e-01 0.000000000000000000e+00
3.303366681403406835e-01 -8.690028099279292206e-01 0.000000000000000000e+00
4.093330245718310167e-01 -8.445435245224492959e-01 0.000000000000000000e+00
4.859700103876365973e-01 -8.149578170318222403e-01 0.000000000000000000e+00
5.598079938053870386e-01 -7.804280931809741695e-01 0.000000000000000000e+00
6.304245998232598236e-01 -7.411672401997440041e-01 0.000000000000000000e+00
6.974173143023185695e-01 -6.974173143023189025e-01 0.000000000000000000e+00
7.604059656000308198e-01 -6.494480483301838802e-01 0.000000000000000000e+00
-8.090169943749476733e-01 -5.877852522924731371e-01 0.000000000000000000e+00
-7.411672401997437820e-01 -6.304245998232599346e-01 0.000000000000000000e+00
-6.693134228431936172e-01 -6.693134228431933952e-01 0.000000000000000000e+00
-5.938357139478289692e-01 -7.042119588265089991e-01 0.000000000000000000e+00
-5.151366276525870536e-01 -7.349050466939291981e-01 0.000000000000000000e+00
-4.336385389592901096e-01 -7.612034533522643587e-01 0.000000000000000000e+00
-3.497810796503074138e-01 -7.829450403793581925e-01 0.000000000000000000e+00
-2.640184278124255712e-01 -7.999957636613764800e-01 0.000000000000000000e+00
-1.768165076779110167e-01 -8.122504998193452730e-01 0.000000000000000000e+00
-8.865011704668515624e-02 -8.196336943297375388e-01 0.000000000000000000e+00
-2.983724378680108202e-16 -8.220998273432350567e-01 0.000000000000000000e+00
8.865011704668490644e-02 -8.196336943297377609e-01 0.000000000000000000e+00
1.768165076779109612e-01 -8.122504998193453840e-01 0.000000000000000000e+00
2.640184278124254047e-01 -7.999957636613764800e-01 0.000000000000000000e+00
3.497810796503072472e-01 -7.829450403793580815e-01 0.000000000000000000e+00
4.336385389592893880e-01 -7.612034533522648028e-01 0.000000000000000000e+00
5.151366276525866095e-01 -7.349050466939296422e-01 0.000000000000000000e+00
5.938357139478287472e-01 -7.042119588265091101e-01 0.000000000000000000e+00
6.693134228431928401e-01 -6.693134228431933952e-01 0.000000000000000000e+00
7.411672401997433379e-01 -6.304245998232600456e-01 0.000000000000000000e+00
8.090169943749474513e-01 -5.877852522924733591e-01 0.000000000000000000e+00
-8.526401643540924002e-01 -5.224985647159487989e-01 0.000000000000000000e+00
-7.804280931809740585e-01 -5.598079938053870386e-01 0.000000000000000000e+00
-7.042119588265092212e-01 -5.938357139478287472e-01 0.000000000000000000e+00
-6.243719329332303447e-01 -6.243719329332300116e-01 0.000000000000000000e+00
-5.413105296400737565e-01 -6.512283848172230050e-01 0.000000000000000000e+00
-4.554501239488623066e-01 -6.742394906432664925e-01 0.000000000000000000e+00
-3.672303476419654378e-01 -6.932633792919729032e-01 0.000000000000000000e+00
-2.771053788061691447e-01 -7.081827621637389880e-01 0.000000000000000000e+00
-1.855411416737400565e-01 -7.189056563019620150e-01 0.000000000000000000e+00
-9.301243404459949571e-02 -7.253659514985555390e-01 0.000000000000000000e+00
-1.734723475976807094e-16 -7.275238178853656867e-01 0.000000000000000000e+00
9.301243404459931530e-02 -7.253659514985555390e-01 0.000000000000000000e+00
1.855411416737395847e-01 -7.189056563019620150e-01 0.000000000000000000e+00
2.771053788061687007e-01 -7.081827621637394321e-01 0.000000000000000000e+00
3.672303476419652157e-01 -6.932633792919731253e-01 0.000000000000000000e+00
4.554501239488620290e-01 -6.742394906432667145e-01 0.000000000000000000e+00
5.413105296400734234e-01 -6.512283848172232270e-01 0.000000000000000000e+00
6.243719329332301227e-01 -6.243719329332302337e-01 0.000000000000000000e+00
7.042119588265088881e-01 -5.938357139478289692e-01 0.000000000000000000e+00
7.804280931809738364e-01 -5.598079938053872606e-01 0.000000000000000000e+00
8.526401643540921782e-01 -5.224985647159490210e-01 0.000000000000000000e+00
-8.910065241883680098e-01 -4.539904997395466379e-01 0.000000000000000000e+00
-8.149578170318221293e-01 -4.859700103876367083e-01 0.000000000000000000e+00
-7.349050466939295312e-01 -5.151366276525868315e-01 0.000000000000000000e+00
-6.512283848172233380e-01 -5.413105296400735345e-01 0.000000000000000000e+00
-5.643303455406391000e-01 -5.643303455406389890e-01 0.000000000000000000e+00
-4.746333038659998893e-01 -5.840541505343901374e-01 0.000000000000000000e+00
-3.825768915756757593e-01 -6.003603408047104573e-01 0.000000000000000000e+00
-2.886152867564517610e-01 -6.131483832662241173e-01 0.000000000000000000e+00
-1.932144136405948842e-01 -6.223394353847009342e-01 0.000000000000000000e+00
-9.684907002802703446e-02 -6.278768312674951613e-01 0.000000000000000000e+00
-2.081668171172168513e-16 -6.297264310276182719e-01 0.000000000000000000e+00
9.684907002802704834e-02 -6.278768312674952723e-01 0.000000000000000000e+00
1.932144136405949397e-01 -6.223394353847009342e-01 0.000000000000000000e+00
2.886152867564512614e-01 -6.131483832662243394e-01 0.000000000000000000e+00
3.825768915756754263e-01 -6.003603408047103462e-01 0.000000000000000000e+00
4.746333038660000558e-01 -5.840541505343903594e-01 0.000000000000000000e+00
5.643303455406391000e-01 -5.643303455406391000e-01 0.000000000000000000e+00
6.512283848172233380e-01 -5.413105296400737565e-01 0.000000000000000000e+00
7.349050466939295312e-01 -5.151366276525866095e-01 0.000000000000000000e+00
8.149578170318222403e-01 -4.859700103876368749e-01 0.000000000000000000e+00
8.910065241883676768e-01 -4.539904997395469155e-01 0.000000000000000000e+00
-9.238795325112868495e-01 -3.826834323650896152e-01 0.000000000000000000e+00
-8.445435245224490739e-01 -4.093330245718313498e-01 0.000000000000000000e+00
-7.612034533522648028e-01 -4.336385389592896100e-01 0.000000000000000000e+00
-6.742394906432664925e-01 -4.554501239488619735e-01 0.000000000000000000e+00
-5.840541505343903594e-01 -4.746333038659998338e-01 0.000000000000000000e+00
-4.910698080274595867e-01 -4.910698080274592536e-01 0.000000000000000000e+00
-3.957260949048432286e-01 -5.046582999193929275e-01 0.000000000000000000e+00
-2.984771892533274462e-01 -5.153150019706541629e-01 0.000000000000000000e+00
-1.997890153051789519e-01 -5.229742120693848806e-01 0.000000000000000000e+00
-1.001363708603190406e-01 -5.275887086383801439e-01 0.000000000000000000e+00
-2.359223927328457648e-16 -5.291300417718161064e-01 0.000000000000000000e+00
1.001363708603189712e-01 -5.275887086383800328e-01 0.000000000000000000e+00
1.997890153051786744e-01 -5.229742120693849916e-01 0.000000000000000000e+00
2.984771892533269466e-01 -5.153150019706544960e-01 0.000000000000000000e+00
3.957260949048429510e-01 -5.046582999193928165e-01 0.000000000000000000e+00
4.910698080274591426e-01 -4.910698080274594757e-01 0.000000000000000000e+00
5.840541505343901374e-01 -4.746333038660000558e-01 0.000000000000000000e+00
6.742394906432662705e-01 -4.554501239488623066e-01 0.000000000000000000e+00
7.612034533522644697e-01 -4.336385389592900541e-01 0.000000000000000000e+00
8.445435245224488519e-01 -4.093330245718317384e-01 0.000000000000000000e+00
9.238795325112865164e-01 -3.826834323650899483e-01 0.000000000000000000e+00
-9.510565162951536422e-01 -3.090169943749472292e-01 0.000000000000000000e+00
-8.690028099279291096e-01 -3.303366681403405725e-01 0.000000000000000000e+00
-7.829450403793579705e-01 -3.497810796503072472e-01 0.000000000000000000e+00
-6.932633792919731253e-01 -3.672303476419653823e-01 0.000000000000000000e+00
-6.003603408047106793e-01 -3.825768915756754263e-01 0.000000000000000000e+00
-5.046582999193928165e-01 -3.957260949048430621e-01 0.000000000000000000e+00
-4.065968884183900345e-01 -4.065968884183897569e-01 0.000000000000000000e+00
-3.066302843884872731e-01 -4.151222500593990117e-01 0.000000000000000000e+00
-2.052244120619521883e-01 -4.212496181383833527e-01 0.000000000000000000e+00
-1.028540692387057004e-01 -4.249412153935796521e-01 0.000000000000000000e+00
-1.249000902703301108e-16 -4.261742819003282445e-01 0.000000000000000000e+00
1.028540692387055755e-01 -4.249412153935796521e-01 0.000000000000000000e+00
2.052244120619520773e-01 -4.212496181383834637e-01 0.000000000000000000e+00
3.066302843884867180e-01 -4.151222500593990672e-01 0.000000000000000000e+00
4.065968884183897014e-01 -4.065968884183898124e-01 0.000000000000000000e+00
5.046582999193922614e-01 -3.957260949048432286e-01 0.000000000000000000e+00
6.003603408047101242e-01 -3.825768915756755928e-01 0.000000000000000000e+00
6.932633792919729032e-01 -3.672303476419652712e-01 0.000000000000000000e+00
7.829450403793580815e-01 -3.497810796503074693e-01 0.000000000000000000e+00
8.690028099279289986e-01 -3.303366681403408500e-01 0.000000000000000000e+00
9.510565162951536422e-01 -3.090169943749475068e-01 0.000000000000000000e+00
-9.723699203976766681e-01 -2.334453638559052802e-01 0.000000000000000000e+00
-8.881848736201999328e-01 -2.494351191799503153e-01 0.000000000000000000e+00
-7.999957636613764800e-01 -2.640184278124251827e-01 0.000000000000000000e+00
-7.081827621637394321e-01 -2.771053788061688117e-01 0.000000000000000000e+00
-6.131483832662243394e-01 -2.886152867564513169e-01 0.000000000000000000e+00
-5.153150019706541629e-01 -2.984771892533271131e-01 0.000000000000000000e+00
-4.151222500593991782e-01 -3.066302843884872731e-01 0.000000000000000000e+00
-3.130243056192442141e-01 -3.130243056192441031e-01 0.000000000000000000e+00
-2.094870928824566769e-01 -3.176198316784824560e-01 0.000000000000000000e+00
-1.049854096489578476e-01 -3.203885296198793475e-01 0.000000000000000000e+00
-1.526556658859590243e-16 -3.213133294999411804e-01 0.000000000000000000e+00
1.049854096489579169e-01 -3.203885296198796251e-01 0.000000000000000000e+00
2.094870928824567879e-01 -3.176198316784825670e-01 0.000000000000000000e+00
3.130243056192442141e-01 -3.130243056192443252e-01 0.000000000000000000e+00
4.151222500593990672e-01 -3.066302843884873286e-01 0.000000000000000000e+00
5.153150019706540519e-01 -2.984771892533273352e-01 0.000000000000000000e+00
6.131483832662242284e-01 -2.886152867564517610e-01 0.000000000000000000e+00
7.081827621637394321e-01 -2.771053788061689227e-01 0.000000000000000000e+00
7.999957636613764800e-01 -2.640184278124255712e-01 0.000000000000000000e+00
8.881848736201995997e-01 -2.494351191799506762e-01 0.000000000000000000e+00
9.723699203976765570e-01 -2.334453638559056410e-01 0.000000000000000000e+00
-9.876883405951379924e-01 -1.564344650402307302e-01 0.000000000000000000e+00
-9.019714517979151580e-01 -1.670943019229274296e-01 0.000000000000000000e+00
-8.122504998193454950e-01 -1.768165076779107392e-01 0.000000000000000000e+00
-7.189056563019620150e-01 -1.855411416737395291e-01 0.000000000000000000e+00
-6.223394353847011562e-01 -1.932144136405946622e-01 0.000000000000000000e+00
-5.229742120693849916e-01 -1.997890153051787021e-01 0.000000000000000000e+00
-4.212496181383836857e-01 -2.052244120619521051e-01 0.000000000000000000e+00
-3.176198316784826226e-01 -2.094870928824565381e-01 0.000000000000000000e+00
-2.125507769219490140e-01 -2.125507769219488197e-01 0.000000000000000000e+00
-1.065172516687039606e-01 -2.143965755495469694e-01 0.000000000000000000e+00
-8.326672684688674053e-17 -2.150131088029212933e-01 0.000000000000000000e+00
1.065172516687040716e-01 -2.143965755495470527e-01 0.000000000000000000e+00
2.125507769219489862e-01 -2.125507769219489029e-01 0.000000000000000000e+00
3.176198316784824560e-01 -2.094870928824567324e-01 0.000000000000000000e+00
4.212496181383834082e-01 -2.052244120619520495e-01 0.000000000000000000e+00
5.229742120693847696e-01 -1.997890153051788409e-01 0.000000000000000000e+00
6.223394353847009342e-01 -1.932144136405950507e-01 0.000000000000000000e+00
7.189056563019622370e-01 -1.855411416737399177e-01 0.000000000000000000e+00
8.122504998193456061e-01 -1.768165076779109612e-01 0.000000000000000000e+00
9.019714517979149360e-01 -1.670943019229275128e-01 0.000000000000000000e+00
9.876883405951377704e-01 -1.564344650402309522e-01 0.000000000000000000e+00
-9.969173337331280749e-01 -7.845909572784481867e-02 0.000000000000000000e+00
-9.102775456221062766e-01 -8.378901416919322387e-02 0.000000000000000000e+00
-8.196336943297379829e-01 -8.865011704668478154e-02 0.000000000000000000e+00
-7.253659514985553169e-01 -9.301243404459930142e-02 0.000000000000000000e+00
-6.278768312674952723e-01 -9.684907002802685405e-02 0.000000000000000000e+00
-5.275887086383801439e-01 -1.001363708603188324e-01 0.000000000000000000e+00
-4.249412153935796521e-01 -1.028540692387055200e-01 0.000000000000000000e+00
-3.203885296198795696e-01 -1.049854096489576949e-01 0.000000000000000000e+00
-2.143965755495471637e-01 -1.065172516687038218e-01 0.000000000000000000e+00
-1.074401509825029799e-01 -1.074401509825029244e-01 0.000000000000000000e+00
-5.551115123125782702e-17 -1.077484176091901835e-01 0.000000000000000000e+00
1.074401509825032297e-01 -1.074401509825031187e-01 0.000000000000000000e+00
2.143965755495469416e-01 -1.065172516687038495e-01 0.000000000000000000e+00
3.203885296198797361e-01 -1.049854096489577504e-01 0.000000000000000000e+00
4.249412153935797631e-01 -1.028540692387055477e-01 0.000000000000000000e+00
5.275887086383800328e-01 -1.001363708603190406e-01 0.000000000000000000e+00
6.278768312674951613e-01 -9.684907002802711773e-02 0.000000000000000000e+00
7.253659514985555390e-01 -9.301243404459946795e-02 0.000000000000000000e+00
8.196336943297377609e-01 -8.865011704668504522e-02 0.000000000000000000e+00
9.102775456221063877e-01 -8.378901416919332101e-02 0.000000000000000000e+00
9.969173337331279638e-01 -7.845909572784509622e-02 0.000000000000000000e+00
-9.999999999999998890e-01 1.110223024625156540e-16 0.000000000000000000e+00
-9.130519452622907206e-01 9.783840404509190533e-17 0.000000000000000000e+00
-8.220998273432351677e-01 8.465450562766818128e-17 0.000000000000000000e+00
-7.275238178853656867e-01 7.494005416219807141e-17 0.000000000000000000e+00
-6.297264310276184940e-01 5.828670879282072084e-17 0.000000000000000000e+00
-5.291300417718159954e-01 0.000000000000000000e+00 0.000000000000000000e+00
-4.261742819003283556e-01 -1.665334536937736290e-17 0.000000000000000000e+00
-3.213133294999411249e-01 -3.330669073875471347e-17 0.000000000000000000e+00
-2.150131088029213766e-01 -2.220446049250313820e-17 0.000000000000000000e+00
-1.077484176091902668e-01 -1.221245327087672293e-16 0.000000000000000000e+00
-8.326672684688674053e-17 -2.775557561562891351e-17 0.000000000000000000e+00
1.077484176091903223e-01 -1.554312234475219305e-16 0.000000000000000000e+00
2.150131088029214876e-01 -1.165734175856414663e-16 0.000000000000000000e+00
3.213133294999410694e-01 -1.887379141862766316e-16 0.000000000000000000e+00
4.261742819003283556e-01 -1.221245327087672293e-16 0.000000000000000000e+00
5.291300417718158844e-01 -1.942890293094023946e-16 0.000000000000000000e+00
6.297264310276182719e-01 -2.109423746787797821e-16 0.000000000000000000e+00
7.275238178853657978e-01 -2.275957200481571204e-16 0.000000000000000000e+00
8.220998273432351677e-01 -1.887379141862766316e-16 0.000000000000000000e+00
9.130519452622909427e-01 -2.053912595556539698e-16 0.000000000000000000e+00
1.000000000000000000e+00 -2.220446049250313081e-16 0.000000000000000000e+00
-9.969173337331279638e-01 7.845909572784526276e-02 0.000000000000000000e+00
-9.102775456221062766e-01 8.378901416919315448e-02 0.000000000000000000e+00
-8.196336943297375388e-01 8.865011704668523951e-02 0.000000000000000000e+00
-7.253659514985550949e-01 9.301243404459969000e-02 0.000000000000000000e+00
-6.278768312674952723e-01 9.684907002802735365e-02 0.000000000000000000e+00
-5.275887086383798108e-01 1.001363708603190961e-01 0.000000000000000000e+00
-4.249412153935794301e-01 1.028540692387057837e-01 0.000000000000000000e+00
-3.203885296198795696e-01 1.049854096489581251e-01 0.000000000000000000e+00
-2.143965755495469694e-01 1.065172516687041826e-01 0.000000000000000000e+00
-1.074401509825030632e-01 1.074401509825031464e-01 0.000000000000000000e+00
-2.775557561562891351e-17 1.077484176091903778e-01 0.000000000000000000e+00
1.074401509825031742e-01 1.074401509825031464e-01 0.000000000000000000e+00
2.143965755495472747e-01 1.065172516687040161e-01 0.000000000000000000e+00
3.203885296198795141e-01 1.049854096489579725e-01 0.000000000000000000e+00
4.249412153935796521e-01 1.028540692387056310e-01 0.000000000000000000e+00
5.275887086383800328e-01 1.001363708603189295e-01 0.000000000000000000e+00
6.278768312674951613e-01 9.684907002802703446e-02 0.000000000000000000e+00
7.253659514985555390e-01 9.301243404459941244e-02 0.000000000000000000e+00
8.196336943297377609e-01 8.865011704668496195e-02 0.000000000000000000e+00
9.102775456221061656e-01 8.378901416919329326e-02 0.000000000000000000e+00
9.969173337331280749e-01 7.845909572784492969e-02 0.000000000000000000e+00
-9.876883405951376593e-01 1.564344650402311743e-01 0.000000000000000000e+00
-9.019714517979147139e-01 1.670943019229278736e-01 0.000000000000000000e+00
-8.122504998193453840e-01 1.768165076779113498e-01 0.000000000000000000e+00
-7.189056563019620150e-01 1.855411416737399455e-01 0.000000000000000000e+00
-6.223394353847012672e-01 1.932144136405951895e-01 0.000000000000000000e+00
-5.229742120693847696e-01 1.997890153051789519e-01 0.000000000000000000e+00
-4.212496181383834637e-01 2.052244120619522993e-01 0.000000000000000000e+00
-3.176198316784825115e-01 2.094870928824568990e-01 0.000000000000000000e+00
-2.125507769219489307e-01 2.125507769219491250e-01 0.000000000000000000e+00
-1.065172516687039328e-01 2.143965755495471914e-01 0.000000000000000000e+00
-8.326672684688674053e-17 2.150131088029214876e-01 0.000000000000000000e+00
1.065172516687040993e-01 2.143965755495469416e-01 0.000000000000000000e+00
2.125507769219490417e-01 2.125507769219489307e-01 0.000000000000000000e+00
3.176198316784824005e-01 2.094870928824567324e-01 0.000000000000000000e+00
4.212496181383834637e-01 2.052244120619521051e-01 0.000000000000000000e+00
5.229742120693847696e-01 1.997890153051787299e-01 0.000000000000000000e+00
6.223394353847009342e-01 1.932144136405949397e-01 0.000000000000000000e+00
7.189056563019622370e-01 1.855411416737398345e-01 0.000000000000000000e+00
8.122504998193456061e-01 1.768165076779107947e-01 0.000000000000000000e+00
9.019714517979151580e-01 1.670943019229275683e-01 0.000000000000000000e+00
9.876883405951377704e-01 1.564344650402307857e-01 0.000000000000000000e+00
-9.723699203976766681e-01 2.334453638559055855e-01 0.000000000000000000e+00
-8.881848736201999328e-01 2.494351191799503431e-01 0.000000000000000000e+00
-7.999957636613760359e-01 2.640184278124256823e-01 0.000000000000000000e+00
-7.081827621637394321e-01 2.771053788061689782e-01 0.000000000000000000e+00
-6.131483832662243394e-01 2.886152867564517610e-01 0.000000000000000000e+00
-5.153150019706541629e-01 2.984771892533272797e-01 0.000000000000000000e+00
-4.151222500593991782e-01 3.066302843884871066e-01 0.000000000000000000e+00
-3.130243056192441586e-01 3.130243056192442141e-01 0.000000000000000000e+00
-2.094870928824566492e-01 3.176198316784826226e-01 0.000000000000000000e+00
-1.049854096489577782e-01 3.203885296198799582e-01 0.000000000000000000e+00
-8.326672684688674053e-17 3.213133294999411804e-01 0.000000000000000000e+00
1.049854096489580002e-01 3.203885296198795696e-01 0.000000000000000000e+00
2.094870928824567879e-01 3.176198316784824005e-01 0.000000000000000000e+00
3.130243056192441031e-01 3.130243056192441031e-01 0.000000000000000000e+00
4.151222500593990117e-01 3.066302843884872176e-01 0.000000000000000000e+00
5.153150019706541629e-01 2.984771892533271687e-01 0.000000000000000000e+00
6.131483832662241173e-01 2.886152867564513724e-01 0.000000000000000000e+00
7.081827621637393211e-01 2.771053788061687007e-01 0.000000000000000000e+00
7.999957636613767020e-01 2.640184278124253492e-01 0.000000000000000000e+00
8.881848736202000438e-01 2.494351191799501211e-01 0.000000000000000000e+00
9.723699203976765570e-01 2.334453638559053912e-01 0.000000000000000000e+00
-9.510565162951535312e-01 3.090169943749474513e-01 0.000000000000000000e+00
-8.690028099279291096e-01 3.303366681403407390e-01 0.000000000000000000e+00
-7.829450403793579705e-01 3.497810796503076913e-01 0.000000000000000000e+00
-6.932633792919733473e-01 3.672303476419652157e-01 0.000000000000000000e+00
-6.003603408047106793e-01 3.825768915756757038e-01 0.000000000000000000e+00
-5.046582999193927055e-01 3.957260949048431176e-01 0.000000000000000000e+00
-4.065968884183898124e-01 4.065968884183898124e-01 0.000000000000000000e+00
-3.066302843884872731e-01 4.151222500593990672e-01 0.000000000000000000e+00
-2.052244120619520773e-01 4.212496181383835747e-01 0.000000000000000000e+00
-1.028540692387054090e-01 4.249412153935799852e-01 0.000000000000000000e+00
-8.326672684688674053e-17 4.261742819003284111e-01 0.000000000000000000e+00
1.028540692387056310e-01 4.249412153935795966e-01 0.000000000000000000e+00
2.052244120619520773e-01 4.212496181383833527e-01 0.000000000000000000e+00
3.066302843884871621e-01 4.151222500593990117e-01 0.000000000000000000e+00
4.065968884183897014e-01 4.065968884183897569e-01 0.000000000000000000e+00
5.046582999193927055e-01 3.957260949048430065e-01 0.000000000000000000e+00
6.003603408047104573e-01 3.825768915756754263e-01 0.000000000000000000e+00
6.932633792919731253e-01 3.672303476419652157e-01 0.000000000000000000e+00
7.829450403793584146e-01 3.497810796503072472e-01 0.000000000000000000e+00
8.690028099279293317e-01 3.303366681403406835e-01 0.000000000000000000e+00
9.510565162951535312e-01 3.090169943749473402e-01 0.000000000000000000e+00
-9.238795325112867385e-01 3.826834323650899483e-01 0.000000000000000000e+00
-8.445435245224488519e-01 4.093330245718312943e-01 0.000000000000000000e+00
-7.612034533522643587e-01 4.336385389592899986e-01 0.000000000000000000e+00
-6.742394906432662705e-01 4.554501239488622510e-01 0.000000000000000000e+00
-5.840541505343903594e-01 4.746333038660004444e-01 0.000000000000000000e+00
-4.910698080274590871e-01 4.910698080274593647e-01 0.000000000000000000e+00
-3.957260949048430621e-01 5.046582999193924834e-01 0.000000000000000000e+00
-2.984771892533271131e-01 5.153150019706542739e-01 0.000000000000000000e+00
-1.997890153051787021e-01 5.229742120693849916e-01 0.000000000000000000e+00
-1.001363708603188463e-01 5.275887086383799218e-01 0.000000000000000000e+00
-5.551115123125782702e-17 5.291300417718161064e-01 0.000000000000000000e+00
1.001363708603190961e-01 5.275887086383799218e-01 0.000000000000000000e+00
1.997890153051788964e-01 5.229742120693848806e-01 0.000000000000000000e+00
2.984771892533272797e-01 5.153150019706542739e-01 0.000000000000000000e+00
3.957260949048431176e-01 5.046582999193928165e-01 0.000000000000000000e+00
4.910698080274592536e-01 4.910698080274593647e-01 0.000000000000000000e+00
5.840541505343904705e-01 4.746333038659998338e-01 0.000000000000000000e+00
6.742394906432667145e-01 4.554501239488619735e-01 0.000000000000000000e+00
7.612034533522645807e-01 4.336385389592896100e-01 0.000000000000000000e+00
8.445435245224492959e-01 4.093330245718314608e-01 0.000000000000000000e+00
9.238795325112868495e-01 3.826834323650896708e-01 0.000000000000000000e+00
-8.910065241883677878e-01 4.539904997395469710e-01 0.000000000000000000e+00
-8.149578170318217962e-01 4.859700103876370414e-01 0.000000000000000000e+00
-7.349050466939293091e-01 5.151366276525870536e-01 0.000000000000000000e+00
-6.512283848172230050e-01 5.413105296400736455e-01 0.000000000000000000e+00
-5.643303455406391000e-01 5.643303455406395441e-01 0.000000000000000000e+00
-4.746333038660000003e-01 5.840541505343904705e-01 0.000000000000000000e+00
-3.825768915756755373e-01 6.003603408047103462e-01 0.000000000000000000e+00
-2.886152867564514835e-01 6.131483832662243394e-01 0.000000000000000000e+00
-1.932144136405949120e-01 6.223394353847009342e-01 0.000000000000000000e+00
-9.684907002802700671e-02 6.278768312674949392e-01 0.000000000000000000e+00
-1.110223024625156540e-16 6.297264310276182719e-01 0.000000000000000000e+00
9.684907002802717324e-02 6.278768312674949392e-01 0.000000000000000000e+00
1.932144136405951063e-01 6.223394353847009342e-01 0.000000000000000000e+00
2.886152867564515390e-01 6.131483832662241173e-01 0.000000000000000000e+00
3.825768915756755373e-01 6.003603408047105683e-01 0.000000000000000000e+00
4.746333038659998893e-01 5.840541505343903594e-01 0.000000000000000000e+00
5.643303455406392111e-01 5.643303455406387670e-01 0.000000000000000000e+00
6.512283848172233380e-01 5.413105296400733124e-01 0.000000000000000000e+00
7.349050466939294202e-01 5.151366276525866095e-01 0.000000000000000000e+00
8.149578170318219072e-01 4.859700103876367638e-01 0.000000000000000000e+00
8.910065241883678988e-01 4.539904997395465824e-01 0.000000000000000000e+00
-8.526401643540921782e-01 5.224985647159491320e-01 0.000000000000000000e+00
-7.804280931809739474e-01 5.598079938053872606e-01 0.000000000000000000e+00
-7.042119588265088881e-01 5.938357139478291913e-01 0.000000000000000000e+00
-6.243719329332300116e-01 6.243719329332304557e-01 0.000000000000000000e+00
-5.413105296400735345e-01 6.512283848172233380e-01 0.000000000000000000e+00
-4.554501239488619735e-01 6.742394906432667145e-01 0.000000000000000000e+00
-3.672303476419654933e-01 6.932633792919732363e-01 0.000000000000000000e+00
-2.771053788061687007e-01 7.081827621637393211e-01 0.000000000000000000e+00
-1.855411416737397790e-01 7.189056563019622370e-01 0.000000000000000000e+00
-9.301243404459930142e-02 7.253659514985553169e-01 0.000000000000000000e+00
-5.551115123125782702e-17 7.275238178853657978e-01 0.000000000000000000e+00
9.301243404459957898e-02 7.253659514985553169e-01 0.000000000000000000e+00
1.855411416737399455e-01 7.189056563019620150e-01 0.000000000000000000e+00
2.771053788061688672e-01 7.081827621637393211e-01 0.000000000000000000e+00
3.672303476419652712e-01 6.932633792919732363e-01 0.000000000000000000e+00
4.554501239488620290e-01 6.742394906432662705e-01 0.000000000000000000e+00
5.413105296400735345e-01 6.512283848172231160e-01 0.000000000000000000e+00
6.243719329332302337e-01 6.243719329332301227e-01 0.000000000000000000e+00
7.042119588265088881e-01 5.938357139478288582e-01 0.000000000000000000e+00
7.804280931809739474e-01 5.598079938053870386e-01 0.000000000000000000e+00
8.526401643540920672e-01 5.224985647159487989e-01 0.000000000000000000e+00
-8.090169943749474513e-01 5.877852522924734702e-01 0.000000000000000000e+00
-7.411672401997435600e-01 6.304245998232601567e-01 0.000000000000000000e+00
-6.693134228431931732e-01 6.693134228431933952e-01 0.000000000000000000e+00
-5.938357139478287472e-01 7.042119588265089991e-01 0.000000000000000000e+00
-5.151366276525868315e-01 7.349050466939296422e-01 0.000000000000000000e+00
-4.336385389592897210e-01 7.612034533522646917e-01 0.000000000000000000e+00
-3.497810796503073583e-01 7.829450403793581925e-01 0.000000000000000000e+00
-2.640184278124253492e-01 7.999957636613769241e-01 0.000000000000000000e+00
-1.768165076779107947e-01 8.122504998193456061e-01 0.000000000000000000e+00
-8.865011704668496195e-02 8.196336943297377609e-01 0.000000000000000000e+00
0.000000000000000000e+00 8.220998273432351677e-01 0.000000000000000000e+00
8.865011704668507297e-02 8.196336943297375388e-01 0.000000000000000000e+00
1.768165076779110167e-01 8.122504998193456061e-01 0.000000000000000000e+00
2.640184278124253492e-01 7.999957636613767020e-01 0.000000000000000000e+00
3.497810796503073583e-01 7.829450403793581925e-01 0.000000000000000000e+00
4.336385389592897210e-01 7.612034533522644697e-01 0.000000000000000000e+00
5.151366276525868315e-01 7.349050466939293091e-01 0.000000000000000000e+00
5.938357139478289692e-01 7.042119588265087771e-01 0.000000000000000000e+00
6.693134228431933952e-01 6.693134228431931732e-01 0.000000000000000000e+00
7.411672401997434489e-01 6.304245998232598236e-01 0.000000000000000000e+00
8.090169943749475623e-01 5.877852522924731371e-01 0.000000000000000000e+00
-7.604059656000310419e-01 6.494480483301837692e-01 0.000000000000000000e+00
-6.974173143023185695e-01 6.974173143023190136e-01 0.000000000000000000e+00
-6.304245998232598236e-01 7.411672401997436710e-01 0.000000000000000000e+00
-5.598079938053871496e-01 7.804280931809739474e-01 0.000000000000000000e+00
-4.859700103876368749e-01 8.149578170318221293e-01 0.000000000000000000e+00
-4.093330245718312943e-01 8.445435245224492959e-01 0.000000000000000000e+00
-3.303366681403409055e-01 8.690028099279291096e-01 0.000000000000000000e+00
-2.494351191799504264e-01 8.881848736201998218e-01 0.000000000000000000e+00
-1.670943019229275683e-01 9.019714517979151580e-01 0.000000000000000000e+00
-8.378901416919326550e-02 9.102775456221061656e-01 0.000000000000000000e+00
-5.551115123125782702e-17 9.130519452622909427e-01 0.000000000000000000e+00
8.378901416919343204e-02 9.102775456221059436e-01 0.000000000000000000e+00
1.670943019229277904e-01 9.019714517979149360e-01 0.000000000000000000e+00
2.494351191799502321e-01 8.881848736201995997e-01 0.000000000000000000e+00
3.303366681403406835e-01 8.690028099279293317e-01 0.000000000000000000e+00
4.093330245718314053e-01 8.445435245224490739e-01 0.000000000000000000e+00
4.859700103876369859e-01 8.149578170318220183e-01 0.000000000000000000e+00
5.598079938053872606e-01 7.804280931809737254e-01 0.000000000000000000e+00
6.304245998232599346e-01 7.411672401997435600e-01 0.000000000000000000e+00
6.974173143023185695e-01 6.974173143023187915e-01 0.000000000000000000e+00
7.604059656000309309e-01 6.494480483301834361e-01 0.000000000000000000e+00
-7.071067811865474617e-01 7.071067811865477948e-01 0.000000000000000000e+00
-6.494480483301836582e-01 7.604059656000309309e-01 0.000000000000000000e+00
-5.877852522924729151e-01 8.090169943749477843e-01 0.000000000000000000e+00
-5.224985647159487989e-01 8.526401643540922892e-01 0.000000000000000000e+00
-4.539904997395467490e-01 8.910065241883677878e-01 0.000000000000000000e+00
-3.826834323650897263e-01 9.238795325112868495e-01 0.000000000000000000e+00
-3.090169943749473402e-01 9.510565162951537532e-01 0.000000000000000000e+00
-2.334453638559053912e-01 9.723699203976765570e-01 0.000000000000000000e+00
-1.564344650402308412e-01 9.876883405951377704e-01 0.000000000000000000e+00
-7.845909572784487418e-02 9.969173337331279638e-01 0.000000000000000000e+00
0.000000000000000000e+00 1.000000000000000222e+00 0.000000000000000000e+00
7.845909572784515174e-02 9.969173337331280749e-01 0.000000000000000000e+00
1.564344650402310632e-01 9.876883405951377704e-01 0.000000000000000000e+00
2.334453638559054744e-01 9.723699203976765570e-01 0.000000000000000000e+00
3.090169943749474513e-01 9.510565162951536422e-01 0.000000000000000000e+00
3.826834323650897263e-01 9.238795325112869605e-01 0.000000000000000000e+00
4.539904997395468600e-01 8.910065241883677878e-01 0.000000000000000000e+00
5.224985647159489099e-01 8.526401643540921782e-01 0.000000000000000000e+00
5.877852522924732481e-01 8.090169943749474513e-01 0.000000000000000000e+00
6.494480483301837692e-01 7.604059656000310419e-01 0.000000000000000000e+00
7.071067811865475727e-01 7.071067811865474617e-01 0.000000000000000000e+00
